<svg width="36" height="36" viewBox="0 0 36 36" fill="none" xmlns="http://www.w3.org/2000/svg">
<path d="M9.81465 29.6768C9.62556 29.8413 9.3935 29.9483 9.1457 29.9855C8.8979 30.0226 8.64464 29.9883 8.41567 29.8865C8.1867 29.7847 7.99151 29.6198 7.85302 29.4109C7.71454 29.2021 7.6385 28.9581 7.63383 28.7076V25.7537C6.9353 25.7537 6.26537 25.4763 5.77143 24.9823C5.27749 24.4884 5 23.8185 5 23.1199V13.9015C5 13.203 5.27749 12.533 5.77143 12.0391C6.26537 11.5452 6.9353 11.2677 7.63383 11.2677H22.1199C22.8185 11.2677 23.4884 11.5452 23.9823 12.0391C24.4763 12.533 24.7537 13.203 24.7537 13.9015V23.1199C24.7537 23.8185 24.4763 24.4884 23.9823 24.9823C23.4884 25.4763 22.8185 25.7537 22.1199 25.7537H15.5393L9.81465 29.6768ZM26.0707 19.1916C26.0665 19.3535 26.0665 19.5155 26.0707 19.6775V19.1902C26.0772 19.0493 26.0786 17.2847 26.0759 13.8975C26.0749 12.8504 25.6582 11.8466 24.9174 11.1065C24.1766 10.3664 23.1723 9.95075 22.1252 9.95075H11.5846V8.63383C11.5846 7.9353 11.8621 7.26537 12.356 6.77143C12.85 6.27749 13.5199 6 14.2184 6H28.7045C29.403 6 30.073 6.27749 30.5669 6.77143C31.0608 7.26537 31.3383 7.9353 31.3383 8.63383V17.8522C31.3383 18.5508 31.0608 19.2207 30.5669 19.7146C30.073 20.2086 29.403 20.4861 28.7045 20.4861V23.4399C28.6998 23.6905 28.6238 23.9344 28.4853 24.1433C28.3468 24.3521 28.1516 24.5171 27.9227 24.6188C27.6937 24.7206 27.4404 24.7549 27.1926 24.7178C26.9448 24.6807 26.7128 24.5736 26.5237 24.4092L26.0707 24.0984V19.1916Z" fill="#FAFAFA"/>
</svg>
