<svg width="375" height="812" viewBox="0 0 375 812" fill="none" xmlns="http://www.w3.org/2000/svg">
<g clip-path="url(#clip0_260_785)">
<rect width="375" height="812" fill="white"/>
<path d="M14.2446 99.8014C10.7672 103.022 5.53016 104.457 1.14288 105.656C-0.068835 105.988 -1.21121 106.302 -2.23552 106.629C-2.77013 106.807 -3.3352 106.874 -3.89653 106.827C-4.45786 106.78 -5.00375 106.619 -5.50117 106.355C-5.99859 106.09 -6.43718 105.728 -6.79038 105.289C-7.14357 104.85 -7.40403 104.344 -7.55598 103.802C-7.73237 103.19 -7.92974 102.556 -8.12657 101.901C-9.41843 97.6669 -10.9791 92.5537 -10.2859 87.7119C-18.1151 85.6871 -25.9491 77.8882 -23.8096 65.1878C-23.8096 65.1878 -22.7256 59.5182 -20.4217 58.8134C-17.6883 57.9772 -17.4953 60.6904 -17.3759 62.3833C-17.3537 62.7004 -17.3349 62.9829 -17.3014 63.1968C-15.4443 75.0839 -0.303185 72.2313 4.21405 63.7322L2.08927 62.6029C1.03994 62.0443 0.234457 61.1172 -0.171986 60.0002C-0.578429 58.8831 -0.55706 57.6551 -0.112001 56.5529C0.333057 55.4506 1.17031 54.5521 2.23844 54.0304C3.30656 53.5087 4.52997 53.4008 5.67292 53.7274C4.60261 46.6458 -0.180084 39.5967 -5.8745 36.5701C-14.3736 32.0529 -21.2198 37.2432 -24.3367 43.1076C-24.488 43.3923 -24.6432 43.7459 -24.8097 44.1206C-25.4694 45.6285 -26.2978 47.5153 -27.6577 46.7925C-31.0021 45.015 -36.3952 38.8786 -31.2083 28.5554C-27.0716 20.3826 -20.1079 15.0532 -10.718 14.9208C-3.17161 14.8115 4.51376 18.0297 10.6374 23.448C10.5187 19.0467 11.4254 14.2748 14.1854 9.08181C17.5733 2.70747 19.832 -1.5421 36.1024 -6.51946L54.8864 -11.8885C55.8108 -12.0447 56.7608 -11.8908 57.5886 -11.4508C58.4164 -11.0109 59.0755 -10.3095 59.4632 -9.456L65.8494 9.29088C70.8267 25.5613 68.5681 29.8109 65.1802 36.1852C62.1875 41.8159 58.3876 45.3662 54.3091 47.7384C63.5892 49.2481 71.9746 54.1845 76.687 61.3761C81.8307 69.2329 81.305 77.9842 76.8497 85.9876C71.1952 96.0623 63.0918 95.0254 59.7474 93.2478C58.3875 92.5251 59.4879 90.7828 60.3686 89.3924C60.5714 89.0796 60.7632 88.7598 60.9436 88.4336C64.0605 82.5692 64.5323 73.9909 56.0331 69.4737C50.0158 66.2755 40.8535 66.4307 34.2877 70.0478C34.6592 70.9377 34.7549 71.9187 34.5622 72.8637C34.3695 73.8086 33.8974 74.6738 33.207 75.3472C32.5167 76.0205 31.6399 76.4709 30.6905 76.64C29.7411 76.8091 28.7628 76.6891 27.8824 76.2954L27.8756 76.3082C23.3584 84.8073 29.4651 98.953 40.3566 93.8418C40.5527 93.7498 40.7974 93.6073 41.0726 93.4484C42.5448 92.5959 44.8973 91.2357 45.7355 93.9756C46.4361 96.2773 42.3476 100.35 42.3476 100.35C31.9529 110.238 19.6889 106.477 14.2446 99.8014Z" fill="black" fill-opacity="0.1"/>
<path d="M14.2446 499.801C10.7672 503.022 5.53016 504.457 1.14288 505.656C-0.068835 505.988 -1.21121 506.302 -2.23552 506.629C-2.77013 506.807 -3.3352 506.874 -3.89653 506.827C-4.45786 506.78 -5.00375 506.619 -5.50117 506.355C-5.99859 506.09 -6.43718 505.728 -6.79038 505.289C-7.14357 504.85 -7.40403 504.344 -7.55598 503.802C-7.73237 503.19 -7.92974 502.556 -8.12657 501.901C-9.41843 497.667 -10.9791 492.554 -10.2859 487.712C-18.1151 485.687 -25.9491 477.888 -23.8096 465.188C-23.8096 465.188 -22.7256 459.518 -20.4217 458.813C-17.6883 457.977 -17.4953 460.69 -17.3759 462.383C-17.3537 462.7 -17.3349 462.983 -17.3014 463.197C-15.4443 475.084 -0.303185 472.231 4.21405 463.732L2.08927 462.603C1.03994 462.044 0.234457 461.117 -0.171986 460C-0.578429 458.883 -0.55706 457.655 -0.112001 456.553C0.333057 455.451 1.17031 454.552 2.23844 454.03C3.30656 453.509 4.52997 453.401 5.67292 453.727C4.60261 446.646 -0.180084 439.597 -5.8745 436.57C-14.3736 432.053 -21.2198 437.243 -24.3367 443.108C-24.488 443.392 -24.6432 443.746 -24.8097 444.121C-25.4694 445.628 -26.2978 447.515 -27.6577 446.793C-31.0021 445.015 -36.3952 438.879 -31.2083 428.555C-27.0716 420.383 -20.1079 415.053 -10.718 414.921C-3.17161 414.811 4.51376 418.03 10.6374 423.448C10.5187 419.047 11.4254 414.275 14.1854 409.082C17.5733 402.707 19.832 398.458 36.1024 393.481L54.8864 388.111C55.8108 387.955 56.7608 388.109 57.5886 388.549C58.4164 388.989 59.0755 389.69 59.4632 390.544L65.8494 409.291C70.8267 425.561 68.5681 429.811 65.1802 436.185C62.1875 441.816 58.3876 445.366 54.3091 447.738C63.5892 449.248 71.9746 454.184 76.687 461.376C81.8307 469.233 81.305 477.984 76.8497 485.988C71.1952 496.062 63.0918 495.025 59.7474 493.248C58.3875 492.525 59.4879 490.783 60.3686 489.392C60.5714 489.08 60.7632 488.76 60.9436 488.434C64.0605 482.569 64.5323 473.991 56.0331 469.474C50.0158 466.276 40.8535 466.431 34.2877 470.048C34.6592 470.938 34.7549 471.919 34.5622 472.864C34.3695 473.809 33.8974 474.674 33.207 475.347C32.5167 476.021 31.6399 476.471 30.6905 476.64C29.7411 476.809 28.7628 476.689 27.8824 476.295L27.8756 476.308C23.3584 484.807 29.4651 498.953 40.3566 493.842C40.5527 493.75 40.7974 493.607 41.0726 493.448C42.5448 492.596 44.8973 491.236 45.7355 493.976C46.4361 496.277 42.3476 500.35 42.3476 500.35C31.9529 510.238 19.6889 506.477 14.2446 499.801Z" fill="black" fill-opacity="0.1"/>
<path d="M14.2446 885.801C10.7672 889.022 5.53016 890.457 1.14288 891.656C-0.068835 891.988 -1.21121 892.302 -2.23552 892.629C-2.77013 892.807 -3.3352 892.874 -3.89653 892.827C-4.45786 892.78 -5.00375 892.619 -5.50117 892.355C-5.99859 892.09 -6.43718 891.728 -6.79038 891.289C-7.14357 890.85 -7.40403 890.344 -7.55598 889.802C-7.73237 889.19 -7.92974 888.556 -8.12657 887.901C-9.41843 883.667 -10.9791 878.554 -10.2859 873.712C-18.1151 871.687 -25.9491 863.888 -23.8096 851.188C-23.8096 851.188 -22.7256 845.518 -20.4217 844.813C-17.6883 843.977 -17.4953 846.69 -17.3759 848.383C-17.3537 848.7 -17.3349 848.983 -17.3014 849.197C-15.4443 861.084 -0.303185 858.231 4.21405 849.732L2.08927 848.603C1.03994 848.044 0.234457 847.117 -0.171986 846C-0.578429 844.883 -0.55706 843.655 -0.112001 842.553C0.333057 841.451 1.17031 840.552 2.23844 840.03C3.30656 839.509 4.52997 839.401 5.67292 839.727C4.60261 832.646 -0.180084 825.597 -5.8745 822.57C-14.3736 818.053 -21.2198 823.243 -24.3367 829.108C-24.488 829.392 -24.6432 829.746 -24.8097 830.121C-25.4694 831.628 -26.2978 833.515 -27.6577 832.793C-31.0021 831.015 -36.3952 824.879 -31.2083 814.555C-27.0716 806.383 -20.1079 801.053 -10.718 800.921C-3.17161 800.811 4.51376 804.03 10.6374 809.448C10.5187 805.047 11.4254 800.275 14.1854 795.082C17.5733 788.707 19.832 784.458 36.1024 779.481L54.8864 774.111C55.8108 773.955 56.7608 774.109 57.5886 774.549C58.4164 774.989 59.0755 775.69 59.4632 776.544L65.8494 795.291C70.8267 811.561 68.5681 815.811 65.1802 822.185C62.1875 827.816 58.3876 831.366 54.3091 833.738C63.5892 835.248 71.9746 840.184 76.687 847.376C81.8307 855.233 81.305 863.984 76.8497 871.988C71.1952 882.062 63.0918 881.025 59.7474 879.248C58.3875 878.525 59.4879 876.783 60.3686 875.392C60.5714 875.08 60.7632 874.76 60.9436 874.434C64.0605 868.569 64.5323 859.991 56.0331 855.474C50.0158 852.276 40.8535 852.431 34.2877 856.048C34.6592 856.938 34.7549 857.919 34.5622 858.864C34.3695 859.809 33.8974 860.674 33.207 861.347C32.5167 862.021 31.6399 862.471 30.6905 862.64C29.7411 862.809 28.7628 862.689 27.8824 862.295L27.8756 862.308C23.3584 870.807 29.4651 884.953 40.3566 879.842C40.5527 879.75 40.7974 879.607 41.0726 879.448C42.5448 878.596 44.8973 877.236 45.7355 879.976C46.4361 882.277 42.3476 886.35 42.3476 886.35C31.9529 896.238 19.6889 892.477 14.2446 885.801Z" fill="black" fill-opacity="0.1"/>
<path d="M174.983 99.8014C171.505 103.022 166.268 104.457 161.881 105.656C160.669 105.988 159.527 106.302 158.503 106.629C157.968 106.807 157.403 106.874 156.842 106.827C156.28 106.78 155.734 106.619 155.237 106.355C154.739 106.09 154.301 105.728 153.948 105.289C153.594 104.85 153.334 104.344 153.182 103.802C153.006 103.19 152.808 102.556 152.611 101.901C151.32 97.6669 149.759 92.5537 150.452 87.7119C142.623 85.6871 134.789 77.8882 136.928 65.1878C136.928 65.1878 138.012 59.5182 140.316 58.8134C143.05 57.9772 143.243 60.6904 143.362 62.3833C143.384 62.7004 143.403 62.9829 143.437 63.1968C145.294 75.0839 160.435 72.2313 164.952 63.7322L162.827 62.6029C161.778 62.0443 160.972 61.1172 160.566 60.0002C160.16 58.8831 160.181 57.6551 160.626 56.5529C161.071 55.4506 161.908 54.5521 162.976 54.0304C164.045 53.5087 165.268 53.4008 166.411 53.7274C165.341 46.6458 160.558 39.5967 154.864 36.5701C146.364 32.0529 139.518 37.2432 136.401 43.1076C136.25 43.3923 136.095 43.7459 135.928 44.1206C135.269 45.6285 134.44 47.5153 133.08 46.7925C129.736 45.015 124.343 38.8786 129.53 28.5554C133.666 20.3826 140.63 15.0532 150.02 14.9208C157.566 14.8115 165.252 18.0297 171.375 23.448C171.257 19.0467 172.163 14.2748 174.923 9.08181C178.311 2.70747 180.57 -1.5421 196.84 -6.51946L215.624 -11.8885C216.549 -12.0447 217.499 -11.8908 218.327 -11.4508C219.154 -11.0109 219.814 -10.3095 220.201 -9.456L226.587 9.29088C231.565 25.5613 229.306 29.8109 225.918 36.1852C222.926 41.8159 219.126 45.3662 215.047 47.7384C224.327 49.2481 232.713 54.1845 237.425 61.3761C242.569 69.2329 242.043 77.9842 237.588 85.9876C231.933 96.0623 223.83 95.0254 220.485 93.2478C219.126 92.5251 220.226 90.7828 221.107 89.3924C221.309 89.0796 221.501 88.7598 221.682 88.4336C224.799 82.5692 225.27 73.9909 216.771 69.4737C210.754 66.2755 201.592 66.4307 195.026 70.0478C195.397 70.9377 195.493 71.9187 195.3 72.8637C195.108 73.8086 194.635 74.6738 193.945 75.3472C193.255 76.0205 192.378 76.4709 191.429 76.64C190.479 76.8091 189.501 76.6891 188.62 76.2954L188.614 76.3082C184.096 84.8073 190.203 98.953 201.095 93.8418C201.291 93.7498 201.535 93.6073 201.811 93.4484C203.283 92.5959 205.635 91.2357 206.474 93.9756C207.174 96.2773 203.086 100.35 203.086 100.35C192.691 110.238 180.427 106.477 174.983 99.8014Z" fill="#FF0000" fill-opacity="0.33"/>
<path d="M174.983 499.801C171.505 503.022 166.268 504.457 161.881 505.656C160.669 505.988 159.527 506.302 158.503 506.629C157.968 506.807 157.403 506.874 156.842 506.827C156.28 506.78 155.734 506.619 155.237 506.355C154.739 506.09 154.301 505.728 153.948 505.289C153.594 504.85 153.334 504.344 153.182 503.802C153.006 503.19 152.808 502.556 152.611 501.901C151.32 497.667 149.759 492.554 150.452 487.712C142.623 485.687 134.789 477.888 136.928 465.188C136.928 465.188 138.012 459.518 140.316 458.813C143.05 457.977 143.243 460.69 143.362 462.383C143.384 462.7 143.403 462.983 143.437 463.197C145.294 475.084 160.435 472.231 164.952 463.732L162.827 462.603C161.778 462.044 160.972 461.117 160.566 460C160.16 458.883 160.181 457.655 160.626 456.553C161.071 455.451 161.908 454.552 162.976 454.03C164.045 453.509 165.268 453.401 166.411 453.727C165.341 446.646 160.558 439.597 154.864 436.57C146.364 432.053 139.518 437.243 136.401 443.108C136.25 443.392 136.095 443.746 135.928 444.121C135.269 445.628 134.44 447.515 133.08 446.793C129.736 445.015 124.343 438.879 129.53 428.555C133.666 420.383 140.63 415.053 150.02 414.921C157.566 414.811 165.252 418.03 171.375 423.448C171.257 419.047 172.163 414.275 174.923 409.082C178.311 402.707 180.57 398.458 196.84 393.481L215.624 388.111C216.549 387.955 217.499 388.109 218.327 388.549C219.154 388.989 219.814 389.69 220.201 390.544L226.587 409.291C231.565 425.561 229.306 429.811 225.918 436.185C222.926 441.816 219.126 445.366 215.047 447.738C224.327 449.248 232.713 454.184 237.425 461.376C242.569 469.233 242.043 477.984 237.588 485.988C231.933 496.062 223.83 495.025 220.485 493.248C219.126 492.525 220.226 490.783 221.107 489.392C221.309 489.08 221.501 488.76 221.682 488.434C224.799 482.569 225.27 473.991 216.771 469.474C210.754 466.276 201.592 466.431 195.026 470.048C195.397 470.938 195.493 471.919 195.3 472.864C195.108 473.809 194.635 474.674 193.945 475.347C193.255 476.021 192.378 476.471 191.429 476.64C190.479 476.809 189.501 476.689 188.62 476.295L188.614 476.308C184.096 484.807 190.203 498.953 201.095 493.842C201.291 493.75 201.535 493.607 201.811 493.448C203.283 492.596 205.635 491.236 206.474 493.976C207.174 496.277 203.086 500.35 203.086 500.35C192.691 510.238 180.427 506.477 174.983 499.801Z" fill="#FF0000" fill-opacity="0.33"/>
<path d="M174.983 885.801C171.505 889.022 166.268 890.457 161.881 891.656C160.669 891.988 159.527 892.302 158.503 892.629C157.968 892.807 157.403 892.874 156.842 892.827C156.28 892.78 155.734 892.619 155.237 892.355C154.739 892.09 154.301 891.728 153.948 891.289C153.594 890.85 153.334 890.344 153.182 889.802C153.006 889.19 152.808 888.556 152.611 887.901C151.32 883.667 149.759 878.554 150.452 873.712C142.623 871.687 134.789 863.888 136.928 851.188C136.928 851.188 138.012 845.518 140.316 844.813C143.05 843.977 143.243 846.69 143.362 848.383C143.384 848.7 143.403 848.983 143.437 849.197C145.294 861.084 160.435 858.231 164.952 849.732L162.827 848.603C161.778 848.044 160.972 847.117 160.566 846C160.16 844.883 160.181 843.655 160.626 842.553C161.071 841.451 161.908 840.552 162.976 840.03C164.045 839.509 165.268 839.401 166.411 839.727C165.341 832.646 160.558 825.597 154.864 822.57C146.364 818.053 139.518 823.243 136.401 829.108C136.25 829.392 136.095 829.746 135.928 830.121C135.269 831.628 134.44 833.515 133.08 832.793C129.736 831.015 124.343 824.879 129.53 814.555C133.666 806.383 140.63 801.053 150.02 800.921C157.566 800.811 165.252 804.03 171.375 809.448C171.257 805.047 172.163 800.275 174.923 795.082C178.311 788.707 180.57 784.458 196.84 779.481L215.624 774.111C216.549 773.955 217.499 774.109 218.327 774.549C219.154 774.989 219.814 775.69 220.201 776.544L226.587 795.291C231.565 811.561 229.306 815.811 225.918 822.185C222.926 827.816 219.126 831.366 215.047 833.738C224.327 835.248 232.713 840.184 237.425 847.376C242.569 855.233 242.043 863.984 237.588 871.988C231.933 882.062 223.83 881.025 220.485 879.248C219.126 878.525 220.226 876.783 221.107 875.392C221.309 875.08 221.501 874.76 221.682 874.434C224.799 868.569 225.27 859.991 216.771 855.474C210.754 852.276 201.592 852.431 195.026 856.048C195.397 856.938 195.493 857.919 195.3 858.864C195.108 859.809 194.635 860.674 193.945 861.347C193.255 862.021 192.378 862.471 191.429 862.64C190.479 862.809 189.501 862.689 188.62 862.295L188.614 862.308C184.096 870.807 190.203 884.953 201.095 879.842C201.291 879.75 201.535 879.607 201.811 879.448C203.283 878.596 205.635 877.236 206.474 879.976C207.174 882.277 203.086 886.35 203.086 886.35C192.691 896.238 180.427 892.477 174.983 885.801Z" fill="#FF0000" fill-opacity="0.33"/>
<path d="M95.2446 291.801C91.7672 295.022 86.5302 296.457 82.1429 297.656C80.9312 297.988 79.7888 298.302 78.7645 298.629C78.2299 298.807 77.6648 298.874 77.1035 298.827C76.5421 298.78 75.9962 298.619 75.4988 298.355C75.0014 298.09 74.5628 297.728 74.2096 297.289C73.8564 296.85 73.596 296.344 73.444 295.802C73.2676 295.19 73.0703 294.556 72.8734 293.901C71.5816 289.667 70.0209 284.554 70.7141 279.712C62.8849 277.687 55.0509 269.888 57.1904 257.188C57.1904 257.188 58.2744 251.518 60.5783 250.813C63.3117 249.977 63.5047 252.69 63.6241 254.383C63.6463 254.7 63.6651 254.983 63.6986 255.197C65.5557 267.084 80.6968 264.231 85.2141 255.732L83.0893 254.603C82.0399 254.044 81.2345 253.117 80.828 252C80.4216 250.883 80.4429 249.655 80.888 248.553C81.3331 247.451 82.1703 246.552 83.2384 246.03C84.3066 245.509 85.53 245.401 86.6729 245.727C85.6026 238.646 80.8199 231.597 75.1255 228.57C66.6264 224.053 59.7802 229.243 56.6633 235.108C56.512 235.392 56.3568 235.746 56.1903 236.121C55.5306 237.628 54.7022 239.515 53.3423 238.793C49.9979 237.015 44.6048 230.879 49.7917 220.555C53.9284 212.383 60.8921 207.053 70.282 206.921C77.8284 206.811 85.5138 210.03 91.6374 215.448C91.5187 211.047 92.4254 206.275 95.1854 201.082C98.5733 194.707 100.832 190.458 117.102 185.481L135.886 180.111C136.811 179.955 137.761 180.109 138.589 180.549C139.416 180.989 140.075 181.69 140.463 182.544L146.849 201.291C151.827 217.561 149.568 221.811 146.18 228.185C143.187 233.816 139.388 237.366 135.309 239.738C144.589 241.248 152.975 246.184 157.687 253.376C162.831 261.233 162.305 269.984 157.85 277.988C152.195 288.062 144.092 287.025 140.747 285.248C139.387 284.525 140.488 282.783 141.369 281.392C141.571 281.08 141.763 280.76 141.944 280.434C145.06 274.569 145.532 265.991 137.033 261.474C131.016 258.276 121.854 258.431 115.288 262.048C115.659 262.938 115.755 263.919 115.562 264.864C115.369 265.809 114.897 266.674 114.207 267.347C113.517 268.021 112.64 268.471 111.691 268.64C110.741 268.809 109.763 268.689 108.882 268.295L108.876 268.308C104.358 276.807 110.465 290.953 121.357 285.842C121.553 285.75 121.797 285.607 122.073 285.448C123.545 284.596 125.897 283.236 126.736 285.976C127.436 288.277 123.348 292.35 123.348 292.35C112.953 302.238 100.689 298.477 95.2446 291.801Z" fill="black" fill-opacity="0.1"/>
<path d="M95.2446 707.801C91.7672 711.022 86.5302 712.457 82.1429 713.656C80.9312 713.988 79.7888 714.302 78.7645 714.629C78.2299 714.807 77.6648 714.874 77.1035 714.827C76.5421 714.78 75.9962 714.619 75.4988 714.355C75.0014 714.09 74.5628 713.728 74.2096 713.289C73.8564 712.85 73.596 712.344 73.444 711.802C73.2676 711.19 73.0703 710.556 72.8734 709.901C71.5816 705.667 70.0209 700.554 70.7141 695.712C62.8849 693.687 55.0509 685.888 57.1904 673.188C57.1904 673.188 58.2744 667.518 60.5783 666.813C63.3117 665.977 63.5047 668.69 63.6241 670.383C63.6463 670.7 63.6651 670.983 63.6986 671.197C65.5557 683.084 80.6968 680.231 85.2141 671.732L83.0893 670.603C82.0399 670.044 81.2345 669.117 80.828 668C80.4216 666.883 80.4429 665.655 80.888 664.553C81.3331 663.451 82.1703 662.552 83.2384 662.03C84.3066 661.509 85.53 661.401 86.6729 661.727C85.6026 654.646 80.8199 647.597 75.1255 644.57C66.6264 640.053 59.7802 645.243 56.6633 651.108C56.512 651.392 56.3568 651.746 56.1903 652.121C55.5306 653.628 54.7022 655.515 53.3423 654.793C49.9979 653.015 44.6048 646.879 49.7917 636.555C53.9284 628.383 60.8921 623.053 70.282 622.921C77.8284 622.811 85.5138 626.03 91.6374 631.448C91.5187 627.047 92.4254 622.275 95.1854 617.082C98.5733 610.707 100.832 606.458 117.102 601.481L135.886 596.111C136.811 595.955 137.761 596.109 138.589 596.549C139.416 596.989 140.075 597.69 140.463 598.544L146.849 617.291C151.827 633.561 149.568 637.811 146.18 644.185C143.187 649.816 139.388 653.366 135.309 655.738C144.589 657.248 152.975 662.184 157.687 669.376C162.831 677.233 162.305 685.984 157.85 693.988C152.195 704.062 144.092 703.025 140.747 701.248C139.387 700.525 140.488 698.783 141.369 697.392C141.571 697.08 141.763 696.76 141.944 696.434C145.06 690.569 145.532 681.991 137.033 677.474C131.016 674.276 121.854 674.431 115.288 678.048C115.659 678.938 115.755 679.919 115.562 680.864C115.369 681.809 114.897 682.674 114.207 683.347C113.517 684.021 112.64 684.471 111.691 684.64C110.741 684.809 109.763 684.689 108.882 684.295L108.876 684.308C104.358 692.807 110.465 706.953 121.357 701.842C121.553 701.75 121.797 701.607 122.073 701.448C123.545 700.596 125.897 699.236 126.736 701.976C127.436 704.277 123.348 708.35 123.348 708.35C112.953 718.238 100.689 714.477 95.2446 707.801Z" fill="black" fill-opacity="0.1"/>
<path d="M335.245 99.8014C331.767 103.022 326.53 104.457 322.143 105.656C320.931 105.988 319.789 106.302 318.764 106.629C318.23 106.807 317.665 106.874 317.103 106.827C316.542 106.78 315.996 106.619 315.499 106.355C315.001 106.09 314.563 105.728 314.21 105.289C313.856 104.85 313.596 104.344 313.444 103.802C313.268 103.19 313.07 102.556 312.873 101.901C311.582 97.6669 310.021 92.5537 310.714 87.7119C302.885 85.6871 295.051 77.8882 297.19 65.1878C297.19 65.1878 298.274 59.5182 300.578 58.8134C303.312 57.9772 303.505 60.6904 303.624 62.3833C303.646 62.7004 303.665 62.9829 303.699 63.1968C305.556 75.0839 320.697 72.2313 325.214 63.7322L323.089 62.6029C322.04 62.0443 321.234 61.1172 320.828 60.0002C320.422 58.8831 320.443 57.6551 320.888 56.5529C321.333 55.4506 322.17 54.5521 323.238 54.0304C324.307 53.5087 325.53 53.4008 326.673 53.7274C325.603 46.6458 320.82 39.5967 315.126 36.5701C306.626 32.0529 299.78 37.2432 296.663 43.1076C296.512 43.3923 296.357 43.7459 296.19 44.1206C295.531 45.6285 294.702 47.5153 293.342 46.7925C289.998 45.015 284.605 38.8786 289.792 28.5554C293.928 20.3826 300.892 15.0532 310.282 14.9208C317.828 14.8115 325.514 18.0297 331.637 23.448C331.519 19.0467 332.425 14.2748 335.185 9.08181C338.573 2.70747 340.832 -1.5421 357.102 -6.51946L375.886 -11.8885C376.811 -12.0447 377.761 -11.8908 378.589 -11.4508C379.416 -11.0109 380.075 -10.3095 380.463 -9.456L386.849 9.29088C391.827 25.5613 389.568 29.8109 386.18 36.1852C383.187 41.8159 379.388 45.3662 375.309 47.7384C384.589 49.2481 392.975 54.1845 397.687 61.3761C402.831 69.2329 402.305 77.9842 397.85 85.9876C392.195 96.0623 384.092 95.0254 380.747 93.2478C379.387 92.5251 380.488 90.7828 381.369 89.3924C381.571 89.0796 381.763 88.7598 381.944 88.4336C385.06 82.5692 385.532 73.9909 377.033 69.4737C371.016 66.2755 361.854 66.4307 355.288 70.0478C355.659 70.9377 355.755 71.9187 355.562 72.8637C355.369 73.8086 354.897 74.6738 354.207 75.3472C353.517 76.0205 352.64 76.4709 351.691 76.64C350.741 76.8091 349.763 76.6891 348.882 76.2954L348.876 76.3082C344.358 84.8073 350.465 98.953 361.357 93.8418C361.553 93.7498 361.797 93.6073 362.073 93.4484C363.545 92.5959 365.897 91.2357 366.736 93.9756C367.436 96.2773 363.348 100.35 363.348 100.35C352.953 110.238 340.689 106.477 335.245 99.8014Z" fill="black" fill-opacity="0.1"/>
<path d="M335.245 499.801C331.767 503.022 326.53 504.457 322.143 505.656C320.931 505.988 319.789 506.302 318.764 506.629C318.23 506.807 317.665 506.874 317.103 506.827C316.542 506.78 315.996 506.619 315.499 506.355C315.001 506.09 314.563 505.728 314.21 505.289C313.856 504.85 313.596 504.344 313.444 503.802C313.268 503.19 313.07 502.556 312.873 501.901C311.582 497.667 310.021 492.554 310.714 487.712C302.885 485.687 295.051 477.888 297.19 465.188C297.19 465.188 298.274 459.518 300.578 458.813C303.312 457.977 303.505 460.69 303.624 462.383C303.646 462.7 303.665 462.983 303.699 463.197C305.556 475.084 320.697 472.231 325.214 463.732L323.089 462.603C322.04 462.044 321.234 461.117 320.828 460C320.422 458.883 320.443 457.655 320.888 456.553C321.333 455.451 322.17 454.552 323.238 454.03C324.307 453.509 325.53 453.401 326.673 453.727C325.603 446.646 320.82 439.597 315.126 436.57C306.626 432.053 299.78 437.243 296.663 443.108C296.512 443.392 296.357 443.746 296.19 444.121C295.531 445.628 294.702 447.515 293.342 446.793C289.998 445.015 284.605 438.879 289.792 428.555C293.928 420.383 300.892 415.053 310.282 414.921C317.828 414.811 325.514 418.03 331.637 423.448C331.519 419.047 332.425 414.275 335.185 409.082C338.573 402.707 340.832 398.458 357.102 393.481L375.886 388.111C376.811 387.955 377.761 388.109 378.589 388.549C379.416 388.989 380.075 389.69 380.463 390.544L386.849 409.291C391.827 425.561 389.568 429.811 386.18 436.185C383.187 441.816 379.388 445.366 375.309 447.738C384.589 449.248 392.975 454.184 397.687 461.376C402.831 469.233 402.305 477.984 397.85 485.988C392.195 496.062 384.092 495.025 380.747 493.248C379.387 492.525 380.488 490.783 381.369 489.392C381.571 489.08 381.763 488.76 381.944 488.434C385.06 482.569 385.532 473.991 377.033 469.474C371.016 466.276 361.854 466.431 355.288 470.048C355.659 470.938 355.755 471.919 355.562 472.864C355.369 473.809 354.897 474.674 354.207 475.347C353.517 476.021 352.64 476.471 351.691 476.64C350.741 476.809 349.763 476.689 348.882 476.295L348.876 476.308C344.358 484.807 350.465 498.953 361.357 493.842C361.553 493.75 361.797 493.607 362.073 493.448C363.545 492.596 365.897 491.236 366.736 493.976C367.436 496.277 363.348 500.35 363.348 500.35C352.953 510.238 340.689 506.477 335.245 499.801Z" fill="black" fill-opacity="0.1"/>
<path d="M335.245 885.801C331.767 889.022 326.53 890.457 322.143 891.656C320.931 891.988 319.789 892.302 318.764 892.629C318.23 892.807 317.665 892.874 317.103 892.827C316.542 892.78 315.996 892.619 315.499 892.355C315.001 892.09 314.563 891.728 314.21 891.289C313.856 890.85 313.596 890.344 313.444 889.802C313.268 889.19 313.07 888.556 312.873 887.901C311.582 883.667 310.021 878.554 310.714 873.712C302.885 871.687 295.051 863.888 297.19 851.188C297.19 851.188 298.274 845.518 300.578 844.813C303.312 843.977 303.505 846.69 303.624 848.383C303.646 848.7 303.665 848.983 303.699 849.197C305.556 861.084 320.697 858.231 325.214 849.732L323.089 848.603C322.04 848.044 321.234 847.117 320.828 846C320.422 844.883 320.443 843.655 320.888 842.553C321.333 841.451 322.17 840.552 323.238 840.03C324.307 839.509 325.53 839.401 326.673 839.727C325.603 832.646 320.82 825.597 315.126 822.57C306.626 818.053 299.78 823.243 296.663 829.108C296.512 829.392 296.357 829.746 296.19 830.121C295.531 831.628 294.702 833.515 293.342 832.793C289.998 831.015 284.605 824.879 289.792 814.555C293.928 806.383 300.892 801.053 310.282 800.921C317.828 800.811 325.514 804.03 331.637 809.448C331.519 805.047 332.425 800.275 335.185 795.082C338.573 788.707 340.832 784.458 357.102 779.481L375.886 774.111C376.811 773.955 377.761 774.109 378.589 774.549C379.416 774.989 380.075 775.69 380.463 776.544L386.849 795.291C391.827 811.561 389.568 815.811 386.18 822.185C383.187 827.816 379.388 831.366 375.309 833.738C384.589 835.248 392.975 840.184 397.687 847.376C402.831 855.233 402.305 863.984 397.85 871.988C392.195 882.062 384.092 881.025 380.747 879.248C379.387 878.525 380.488 876.783 381.369 875.392C381.571 875.08 381.763 874.76 381.944 874.434C385.06 868.569 385.532 859.991 377.033 855.474C371.016 852.276 361.854 852.431 355.288 856.048C355.659 856.938 355.755 857.919 355.562 858.864C355.369 859.809 354.897 860.674 354.207 861.347C353.517 862.021 352.64 862.471 351.691 862.64C350.741 862.809 349.763 862.689 348.882 862.295L348.876 862.308C344.358 870.807 350.465 884.953 361.357 879.842C361.553 879.75 361.797 879.607 362.073 879.448C363.545 878.596 365.897 877.236 366.736 879.976C367.436 882.277 363.348 886.35 363.348 886.35C352.953 896.238 340.689 892.477 335.245 885.801Z" fill="black" fill-opacity="0.1"/>
<path d="M255.507 291.801C252.029 295.022 246.792 296.457 242.405 297.656C241.193 297.988 240.051 298.302 239.026 298.629C238.492 298.807 237.927 298.874 237.365 298.827C236.804 298.78 236.258 298.619 235.761 298.355C235.263 298.09 234.825 297.728 234.472 297.289C234.118 296.85 233.858 296.344 233.706 295.802C233.53 295.19 233.332 294.556 233.135 293.901C231.844 289.667 230.283 284.554 230.976 279.712C223.147 277.687 215.313 269.888 217.452 257.188C217.452 257.188 218.536 251.518 220.84 250.813C223.574 249.977 223.767 252.69 223.886 254.383C223.908 254.7 223.927 254.983 223.961 255.197C225.818 267.084 240.959 264.231 245.476 255.732L243.351 254.603C242.302 254.044 241.496 253.117 241.09 252C240.684 250.883 240.705 249.655 241.15 248.553C241.595 247.451 242.432 246.552 243.5 246.03C244.569 245.509 245.792 245.401 246.935 245.727C245.865 238.646 241.082 231.597 235.387 228.57C226.888 224.053 220.042 229.243 216.925 235.108C216.774 235.392 216.619 235.746 216.452 236.121C215.793 237.628 214.964 239.515 213.604 238.793C210.26 237.015 204.867 230.879 210.054 220.555C214.19 212.383 221.154 207.053 230.544 206.921C238.09 206.811 245.776 210.03 251.899 215.448C251.781 211.047 252.687 206.275 255.447 201.082C258.835 194.707 261.094 190.458 277.364 185.481L296.148 180.111C297.073 179.955 298.023 180.109 298.851 180.549C299.678 180.989 300.337 181.69 300.725 182.544L307.111 201.291C312.089 217.561 309.83 221.811 306.442 228.185C303.449 233.816 299.65 237.366 295.571 239.738C304.851 241.248 313.237 246.184 317.949 253.376C323.093 261.233 322.567 269.984 318.112 277.988C312.457 288.062 304.354 287.025 301.009 285.248C299.649 284.525 300.75 282.783 301.631 281.392C301.833 281.08 302.025 280.76 302.206 280.434C305.322 274.569 305.794 265.991 297.295 261.474C291.278 258.276 282.116 258.431 275.55 262.048C275.921 262.938 276.017 263.919 275.824 264.864C275.631 265.809 275.159 266.674 274.469 267.347C273.779 268.021 272.902 268.471 271.952 268.64C271.003 268.809 270.025 268.689 269.144 268.295L269.138 268.308C264.62 276.807 270.727 290.953 281.619 285.842C281.815 285.75 282.059 285.607 282.335 285.448C283.807 284.596 286.159 283.236 286.997 285.976C287.698 288.277 283.61 292.35 283.61 292.35C273.215 302.238 260.951 298.477 255.507 291.801Z" fill="black" fill-opacity="0.1"/>
<path d="M255.507 707.801C252.029 711.022 246.792 712.457 242.405 713.656C241.193 713.988 240.051 714.302 239.026 714.629C238.492 714.807 237.927 714.874 237.365 714.827C236.804 714.78 236.258 714.619 235.761 714.355C235.263 714.09 234.825 713.728 234.472 713.289C234.118 712.85 233.858 712.344 233.706 711.802C233.53 711.19 233.332 710.556 233.135 709.901C231.844 705.667 230.283 700.554 230.976 695.712C223.147 693.687 215.313 685.888 217.452 673.188C217.452 673.188 218.536 667.518 220.84 666.813C223.574 665.977 223.767 668.69 223.886 670.383C223.908 670.7 223.927 670.983 223.961 671.197C225.818 683.084 240.959 680.231 245.476 671.732L243.351 670.603C242.302 670.044 241.496 669.117 241.09 668C240.684 666.883 240.705 665.655 241.15 664.553C241.595 663.451 242.432 662.552 243.5 662.03C244.569 661.509 245.792 661.401 246.935 661.727C245.865 654.646 241.082 647.597 235.387 644.57C226.888 640.053 220.042 645.243 216.925 651.108C216.774 651.392 216.619 651.746 216.452 652.121C215.793 653.628 214.964 655.515 213.604 654.793C210.26 653.015 204.867 646.879 210.054 636.555C214.19 628.383 221.154 623.053 230.544 622.921C238.09 622.811 245.776 626.03 251.899 631.448C251.781 627.047 252.687 622.275 255.447 617.082C258.835 610.707 261.094 606.458 277.364 601.481L296.148 596.111C297.073 595.955 298.023 596.109 298.851 596.549C299.678 596.989 300.337 597.69 300.725 598.544L307.111 617.291C312.089 633.561 309.83 637.811 306.442 644.185C303.449 649.816 299.65 653.366 295.571 655.738C304.851 657.248 313.237 662.184 317.949 669.376C323.093 677.233 322.567 685.984 318.112 693.988C312.457 704.062 304.354 703.025 301.009 701.248C299.649 700.525 300.75 698.783 301.631 697.392C301.833 697.08 302.025 696.76 302.206 696.434C305.322 690.569 305.794 681.991 297.295 677.474C291.278 674.276 282.116 674.431 275.55 678.048C275.921 678.938 276.017 679.919 275.824 680.864C275.631 681.809 275.159 682.674 274.469 683.347C273.779 684.021 272.902 684.471 271.952 684.64C271.003 684.809 270.025 684.689 269.144 684.295L269.138 684.308C264.62 692.807 270.727 706.953 281.619 701.842C281.815 701.75 282.059 701.607 282.335 701.448C283.807 700.596 286.159 699.236 286.997 701.976C287.698 704.277 283.61 708.35 283.61 708.35C273.215 718.238 260.951 714.477 255.507 707.801Z" fill="black" fill-opacity="0.1"/>
<g filter="url(#filter0_b_260_785)">
<rect x="-4" y="-9" width="383" height="830" fill="#D9D9D9" fill-opacity="0.01"/>
</g>
</g>
<defs>
<filter id="filter0_b_260_785" x="-10" y="-15" width="395" height="842" filterUnits="userSpaceOnUse" color-interpolation-filters="sRGB">
<feFlood flood-opacity="0" result="BackgroundImageFix"/>
<feGaussianBlur in="BackgroundImage" stdDeviation="3"/>
<feComposite in2="SourceAlpha" operator="in" result="effect1_backgroundBlur_260_785"/>
<feBlend mode="normal" in="SourceGraphic" in2="effect1_backgroundBlur_260_785" result="shape"/>
</filter>
<clipPath id="clip0_260_785">
<rect width="375" height="812" fill="white"/>
</clipPath>
</defs>
</svg>
