<svg width="32" height="29" viewBox="0 0 32 29" fill="none" xmlns="http://www.w3.org/2000/svg">
<path fill-rule="evenodd" clip-rule="evenodd" d="M10.375 6.125C10.375 4.63316 10.9676 3.20242 12.0225 2.14752C13.0774 1.09263 14.5082 0.5 16 0.5C17.4918 0.5 18.9226 1.09263 19.9775 2.14752C21.0324 3.20242 21.625 4.63316 21.625 6.125C21.625 7.61684 21.0324 9.04758 19.9775 10.1025C18.9226 11.1574 17.4918 11.75 16 11.75C14.5082 11.75 13.0774 11.1574 12.0225 10.1025C10.9676 9.04758 10.375 7.61684 10.375 6.125ZM21.625 10.625C21.625 9.43153 22.0991 8.28693 22.943 7.44302C23.7869 6.59911 24.9315 6.125 26.125 6.125C27.3185 6.125 28.4631 6.59911 29.307 7.44302C30.1509 8.28693 30.625 9.43153 30.625 10.625C30.625 11.8185 30.1509 12.9631 29.307 13.807C28.4631 14.6509 27.3185 15.125 26.125 15.125C24.9315 15.125 23.7869 14.6509 22.943 13.807C22.0991 12.9631 21.625 11.8185 21.625 10.625ZM1.375 10.625C1.375 9.43153 1.84911 8.28693 2.69302 7.44302C3.53693 6.59911 4.68153 6.125 5.875 6.125C7.06847 6.125 8.21307 6.59911 9.05698 7.44302C9.90089 8.28693 10.375 9.43153 10.375 10.625C10.375 11.8185 9.90089 12.9631 9.05698 13.807C8.21307 14.6509 7.06847 15.125 5.875 15.125C4.68153 15.125 3.53693 14.6509 2.69302 13.807C1.84911 12.9631 1.375 11.8185 1.375 10.625ZM7.465 18.6755C8.37993 17.2415 9.64162 16.0614 11.1334 15.2442C12.6252 14.4269 14.299 13.999 16 14C17.4247 13.9987 18.8337 14.2983 20.1346 14.8792C21.4355 15.4602 22.5991 16.3093 23.5491 17.3711C24.4991 18.4328 25.2142 19.6832 25.6475 21.0405C26.0808 22.3977 26.2226 23.8312 26.0635 25.247C26.0441 25.4229 25.9834 25.5917 25.8864 25.7398C25.7895 25.8878 25.659 26.0109 25.5055 26.099C22.6128 27.7588 19.335 28.6298 16 28.625C12.6649 28.6303 9.387 27.7592 6.4945 26.099C6.34103 26.0109 6.21052 25.8878 6.11356 25.7398C6.01661 25.5917 5.95594 25.4229 5.9365 25.247C5.68458 22.9469 6.22369 20.6297 7.465 18.677V18.6755Z" fill="#FAFAFA"/>
<path d="M5.623 17.3811C4.14363 19.6647 3.45438 22.3706 3.661 25.0836C2.76026 24.947 1.87436 24.7261 1.015 24.4236L0.842499 24.3636C0.688592 24.309 0.553825 24.2109 0.454522 24.0812C0.355218 23.9516 0.295639 23.7959 0.282999 23.6331L0.267999 23.4516C0.207406 22.6985 0.299133 21.941 0.537705 21.2242C0.776277 20.5073 1.15681 19.8459 1.65658 19.2794C2.15636 18.7128 2.76515 18.2527 3.44662 17.9266C4.12808 17.6005 4.86827 17.4149 5.623 17.3811ZM28.339 25.0836C28.5456 22.3706 27.8564 19.6647 26.377 17.3811C27.1317 17.4149 27.8719 17.6005 28.5534 17.9266C29.2348 18.2527 29.8436 18.7128 30.3434 19.2794C30.8432 19.8459 31.2237 20.5073 31.4623 21.2242C31.7009 21.941 31.7926 22.6985 31.732 23.4516L31.717 23.6331C31.7041 23.7957 31.6444 23.951 31.5451 24.0804C31.4458 24.2097 31.3112 24.3076 31.1575 24.3621L30.985 24.4221C30.1345 24.7221 29.251 24.9456 28.339 25.0836Z" fill="#FAFAFA"/>
</svg>
